<svg id="Layer_4" data-name="Layer 4" xmlns="http://www.w3.org/2000/svg" viewBox="0 0 24.69 20.47"><defs><style>.cls-1{fill:#ff4d57;}</style></defs><title>quotation_begining</title><path class="cls-1" d="M5417.64,518.26v-5.66a21,21,0,0,1,1.07-7.3,10.87,10.87,0,0,1,3.67-4.84,14.11,14.11,0,0,1,5.83-2.66v4.53a4.82,4.82,0,0,0-2.61,3.55h2.61v12.38h-10.57Zm14.12,0v-5.66a21,21,0,0,1,1.07-7.3,10.92,10.92,0,0,1,3.65-4.84,14,14,0,0,1,5.85-2.66v4.53a4.82,4.82,0,0,0-2.61,3.55h2.61v12.38h-10.57Z" transform="translate(-5417.64 -497.79)"/></svg>