<svg id="Layer_4" data-name="Layer 4" xmlns="http://www.w3.org/2000/svg" viewBox="0 0 24.69 20.47"><defs><style>.cls-1{fill:#ff4d57;}</style></defs><title>quotation_end</title><path class="cls-1" d="M6144.43,614.57v5.66a21.44,21.44,0,0,1-1.05,7.29,10.59,10.59,0,0,1-3.65,4.84,14.64,14.64,0,0,1-5.87,2.68v-4.57a4.71,4.71,0,0,0,2.65-3.52h-2.65V614.57h10.57Zm14.12,0v5.66a21.42,21.42,0,0,1-1.05,7.29,10.6,10.6,0,0,1-3.65,4.84A14.64,14.64,0,0,1,6148,635v-4.57a4.71,4.71,0,0,0,2.61-3.52H6148V614.57h10.57Z" transform="translate(-6133.87 -614.57)"/></svg>